<svg version="1.0" xmlns="http://www.w3.org/2000/svg" width="128.000000pt" height="128.000000pt" viewBox="0 0 128.000000 128.000000" preserveAspectRatio="xMidYMid meet">

  <g transform="translate(0.000000,128.000000) scale(0.100000,-0.100000)" stroke="none">
    <path d="M292 1268 c-38 -38 24 -138 86 -138 13 0 22 -3 20 -7 -2 -5 -15 -30
-29 -58 -26 -50 -49 -134 -49 -180 0 -15 -15 -40 -38 -64 -76 -78 -122 -199
-122 -318 l0 -63 -61 0 c-68 0 -99 -12 -99 -38 0 -37 19 -42 172 -42 l148 0 0
-168 c0 -117 4 -172 12 -180 29 -29 134 2 191 56 51 48 70 98 75 200 l5 92 38
0 39 0 0 -161 c0 -164 7 -199 38 -199 38 0 42 19 42 192 l0 168 248 0 c257 0
272 2 272 42 0 33 -34 38 -256 38 l-218 0 32 32 c63 66 76 115 80 291 l4 157
100 0 c126 0 138 6 138 69 0 85 -26 148 -85 207 -74 74 -123 87 -309 82 -141
-3 -143 -3 -219 -41 -63 -31 -86 -38 -124 -35 -44 3 -49 6 -66 41 -18 38 -42
48 -65 25z m548 -355 c0 -282 -1 -289 -24 -338 -13 -27 -34 -60 -47 -72 -38
-34 -110 -63 -161 -63 l-48 0 30 46 c40 64 50 122 50 293 0 181 -3 187 -84
177 -31 -3 -79 -15 -107 -26 l-51 -19 7 37 c17 93 111 205 198 235 25 10 80
16 140 16 l97 1 0 -287z m136 267 c51 -25 94 -84 101 -139 l6 -41 -82 0 -81 0
0 100 c0 55 3 100 7 100 4 0 26 -9 49 -20z m-416 -440 c0 -150 -9 -191 -53
-238 -43 -46 -89 -62 -183 -62 l-86 0 4 93 c3 74 9 102 31 143 48 95 98 140
196 180 95 40 91 45 91 -116z m-40 -462 c0 -112 -24 -154 -112 -196 -5 -2 -8
60 -8 137 l0 141 60 0 60 0 0 -82z" />
    <path d="M689 1099 c-9 -18 -8 -25 8 -41 22 -22 49 -16 58 13 14 43 -44 67
-66 28z" />
  </g>
</svg>
