<svg version="1.0" xmlns="http://www.w3.org/2000/svg" width="128.000000pt" height="128.000000pt" viewBox="0 0 128.000000 128.000000" preserveAspectRatio="xMidYMid meet">

  <g transform="translate(0.000000,128.000000) scale(0.100000,-0.100000)" stroke="none">
    <path d="M554 1190 c-23 -5 -64 -20 -91 -33 -37 -19 -53 -23 -67 -15 -33 19
-111 3 -167 -32 -90 -58 -207 -224 -225 -318 -14 -75 41 -162 115 -182 39 -10
39 -10 30 -48 -24 -104 -2 -240 52 -319 84 -121 299 -183 541 -155 222 24 337
101 382 252 17 58 21 163 7 222 -9 38 -9 38 30 48 74 20 129 107 115 182 -18
94 -135 260 -225 318 -56 35 -134 51 -166 32 -14 -7 -33 -2 -79 19 -69 32
-179 45 -252 29z m185 -86 c111 -32 161 -106 262 -384 51 -141 53 -148 53
-255 1 -103 -1 -113 -27 -158 -47 -80 -141 -127 -284 -143 l-63 -7 0 80 0 80
41 32 c96 78 107 172 24 207 -44 18 -166 18 -210 0 -83 -35 -72 -129 24 -207
l41 -32 0 -80 0 -80 -62 7 c-144 16 -238 63 -285 143 -26 45 -28 55 -27 158 0
107 2 114 53 255 71 194 112 277 160 324 71 69 190 93 300 60z m-428 -106
c-22 -40 -58 -125 -81 -188 -23 -63 -45 -119 -50 -124 -13 -13 -57 1 -80 26
-39 43 -17 114 76 237 47 63 122 121 156 121 14 0 11 -11 -21 -72z m700 43
c75 -47 189 -215 189 -279 0 -15 -9 -38 -20 -50 -23 -25 -67 -39 -80 -26 -5 5
-27 61 -50 124 -23 63 -59 148 -81 188 -44 83 -35 93 42 43z m-291 -567 c0
-19 -62 -84 -80 -84 -18 0 -80 65 -80 84 0 13 13 16 80 16 67 0 80 -3 80 -16z" />
    <path d="M476 764 c-31 -30 -9 -84 34 -84 24 0 50 26 50 50 0 24 -26 50 -50
50 -10 0 -26 -7 -34 -16z" />
    <path d="M736 764 c-32 -32 -11 -84 34 -84 29 0 50 22 50 54 0 20 -28 46 -50
46 -10 0 -26 -7 -34 -16z" />
  </g>
</svg>
