<svg version="1.0" xmlns="http://www.w3.org/2000/svg" width="128.000000pt" height="128.000000pt" viewBox="0 0 128.000000 128.000000" preserveAspectRatio="xMidYMid meet">

  <g transform="translate(0.000000,128.000000) scale(0.100000,-0.100000)" stroke="none">
    <path d="M603 1229 c4 -30 10 -63 13 -75 5 -17 -2 -24 -40 -38 -79 -30 -204
-196 -148 -196 4 0 31 32 61 71 55 74 82 91 159 104 41 7 43 6 33 -13 -21 -40
-354 -568 -377 -598 -41 -55 -184 -111 -184 -71 0 6 11 31 24 54 l24 42 -35
27 -35 26 40 18 c22 10 65 44 97 75 67 67 177 213 172 228 -9 27 -29 12 -84
-65 -68 -94 -168 -193 -209 -208 -15 -6 -41 -8 -56 -4 l-30 6 15 -29 c8 -16
27 -40 42 -55 l26 -27 -18 -50 c-17 -49 -19 -51 -55 -51 -32 0 -38 -3 -38 -21
0 -21 4 -21 98 -17 105 4 158 23 215 76 16 15 81 110 144 212 64 102 128 203
142 225 l25 40 12 -54 c11 -46 10 -58 -2 -75 -8 -11 -14 -28 -14 -37 0 -20 31
-49 53 -49 9 0 17 -5 17 -10 0 -6 20 -31 44 -55 l45 -44 -26 -63 c-30 -74 -40
-166 -24 -226 20 -74 35 -46 36 64 0 85 4 107 25 152 l25 52 105 4 c88 2 110
0 135 -16 41 -24 105 -23 138 2 31 25 87 120 87 148 0 25 -45 62 -75 62 -16 0
-47 26 -99 81 -42 44 -76 85 -76 89 0 5 7 35 15 66 11 44 12 67 4 96 -12 47
-65 111 -72 88 -19 -58 -17 -57 -35 -30 -51 76 -115 105 -256 116 l-89 7 6
-54z m227 -19 c49 -25 86 -70 94 -114 4 -20 10 -36 15 -36 4 0 20 17 34 37
l26 37 11 -30 c12 -29 6 -98 -9 -122 -7 -11 -18 -9 -58 11 -27 14 -66 28 -86
32 -35 7 -37 9 -37 47 0 45 -22 93 -50 108 -17 9 -23 5 -45 -30 -14 -22 -29
-40 -34 -40 -13 0 -51 82 -51 110 0 22 1 23 76 16 43 -4 94 -16 114 -26z m-51
-102 c11 -30 -1 -67 -38 -121 -17 -25 -27 -47 -24 -51 14 -14 33 -4 53 29 20
33 25 35 58 29 70 -11 136 -52 215 -132 l79 -79 -44 -71 c-24 -39 -45 -71 -48
-71 -3 0 -17 20 -32 44 -16 26 -48 58 -75 75 -41 26 -48 28 -56 14 -5 -8 -7
-16 -5 -18 69 -44 89 -61 107 -90 13 -20 20 -40 17 -45 -10 -15 -98 -22 -135
-12 -42 13 -90 45 -113 76 -14 18 -16 30 -8 49 7 20 17 25 52 28 32 2 44 8 46
21 3 16 -3 18 -58 16 -42 -2 -65 2 -75 12 -8 8 -19 46 -26 86 l-12 71 49 81
c27 44 53 81 57 81 4 0 11 -10 16 -22z m-86 -353 c1 -5 -6 -11 -15 -13 -11 -2
-18 3 -18 13 0 17 30 18 33 0z m476 -19 c6 -7 22 -11 36 -8 17 3 27 -1 31 -12
7 -19 -31 -98 -59 -124 -23 -21 -82 -21 -103 0 -15 15 -13 22 27 87 24 39 47
71 50 71 4 0 12 -6 18 -14z" />
    <path d="M920 850 c0 -13 7 -20 20 -20 13 0 20 7 20 20 0 13 -7 20 -20 20 -13
0 -20 -7 -20 -20z" />
    <path d="M1136 665 c-7 -20 23 -33 34 -14 5 7 6 17 4 21 -9 13 -32 9 -38 -7z" />
    <path d="M521 966 c-9 -11 -8 -15 5 -20 20 -8 39 7 30 23 -10 15 -21 14 -35
-3z" />
    <path d="M60 299 c0 -14 5 -19 17 -17 26 5 29 38 4 38 -15 0 -21 -6 -21 -21z" />
    <path d="M132 303 c5 -26 38 -29 38 -4 0 15 -6 21 -21 21 -14 0 -19 -5 -17
-17z" />
    <path d="M755 220 c-8 -14 3 -30 21 -30 8 0 14 9 14 20 0 21 -24 28 -35 10z" />
    <path d="M770 75 c0 -68 2 -75 20 -75 18 0 20 7 20 59 0 68 -6 91 -26 91 -11
0 -14 -18 -14 -75z" />
  </g>
</svg>
