<?xml version="1.0" standalone="no"?>
<!DOCTYPE svg PUBLIC "-//W3C//DTD SVG 20010904//EN" "http://www.w3.org/TR/2001/REC-SVG-20010904/DTD/svg10.dtd">
<svg version="1.0" xmlns="http://www.w3.org/2000/svg" width="128.000000pt" height="128.000000pt" viewBox="0 0 128.000000 128.000000" preserveAspectRatio="xMidYMid meet">

  <g transform="translate(0.000000,128.000000) scale(0.100000,-0.100000)" stroke="none">
    <path d="M232 1263 c-41 -20 -69 -54 -83 -103 -10 -32 -5 -60 46 -250 33 -124
54 -225 51 -239 -2 -15 -11 -48 -19 -76 l-14 -50 -47 -3 -46 -3 0 -39 0 -39
46 -3 47 -3 13 -50 c7 -27 12 -51 11 -51 -1 -1 -19 -9 -39 -17 -21 -9 -38 -21
-38 -27 0 -10 17 -48 25 -58 2 -2 22 6 45 18 l41 21 42 -44 c23 -24 61 -57 85
-72 36 -23 42 -33 42 -61 0 -27 -4 -34 -20 -34 -17 0 -20 -7 -20 -40 l0 -40
240 0 240 0 0 40 c0 33 -3 40 -20 40 -16 0 -20 7 -20 34 0 30 6 38 50 66 28
18 65 50 83 72 l34 40 41 -21 c23 -12 43 -21 45 -21 3 0 10 14 18 31 11 28 11
33 -7 46 -10 8 -29 16 -42 20 -14 3 -21 11 -18 19 3 7 10 31 16 53 11 40 12
41 55 41 l45 0 0 40 0 40 -44 0 -44 0 -22 73 -23 72 33 125 c91 348 85 314 66
365 -26 67 -74 100 -146 100 -46 0 -63 -5 -93 -27 -41 -32 -60 -76 -103 -244
l-28 -111 -115 1 -116 1 -38 145 c-24 89 -48 157 -62 176 -45 60 -127 80 -193
47z m125 -85 c13 -15 36 -78 61 -171 38 -144 39 -148 20 -158 -11 -6 -21 -9
-22 -7 -2 2 -20 68 -41 148 -21 80 -39 148 -42 152 -3 6 -61 -6 -69 -14 -1 -2
17 -78 42 -168 43 -160 44 -165 26 -183 -18 -18 -20 -13 -65 156 -26 96 -47
184 -47 196 0 60 95 94 137 49z m682 -4 c12 -15 21 -37 21 -50 0 -20 -87 -354
-94 -361 -2 -2 -10 5 -19 15 -15 17 -14 29 28 182 24 90 43 165 41 167 -8 9
-66 21 -69 15 -2 -4 -21 -73 -43 -154 -21 -82 -41 -148 -44 -148 -3 0 -12 5
-20 10 -13 8 -11 27 19 142 48 187 60 208 122 208 29 0 42 -6 58 -26z m-271
-375 c100 -34 198 -136 217 -226 l7 -33 -71 0 -71 0 0 -40 0 -40 71 0 72 0 -7
-32 c-3 -17 -8 -33 -10 -35 -1 -2 -28 8 -60 22 -70 31 -70 31 -84 0 -18 -38
-17 -39 43 -64 30 -13 55 -26 55 -30 0 -4 -15 -21 -32 -37 -146 -136 -370
-136 -516 0 -17 16 -32 33 -32 37 0 4 25 17 55 30 30 12 55 26 55 30 0 14 -23
59 -30 59 -4 0 -33 -11 -64 -25 l-57 -25 -9 26 c-16 42 -13 44 60 44 l70 0 0
40 0 40 -71 0 -71 0 7 33 c18 87 113 188 211 224 79 29 180 30 262 2z m-8
-701 c0 -16 -12 -18 -120 -18 -108 0 -120 2 -120 18 0 15 12 17 120 17 108 0
120 -2 120 -17z" />
    <path d="M480 650 c0 -39 1 -40 35 -40 34 0 35 1 35 40 0 39 -1 40 -35 40 -34
0 -35 -1 -35 -40z" />
    <path d="M730 650 c0 -39 1 -40 35 -40 34 0 35 1 35 40 0 39 -1 40 -35 40 -34
0 -35 -1 -35 -40z" />
    <path d="M580 558 c-14 -7 -33 -30 -43 -51 -16 -31 -17 -42 -7 -72 6 -19 25
-44 41 -56 23 -16 29 -28 27 -48 -4 -32 -32 -35 -36 -3 -3 19 -10 22 -44 22
-37 0 -40 -2 -34 -22 3 -13 6 -28 6 -34 0 -6 12 -23 26 -38 29 -28 90 -36 112
-14 9 9 15 9 24 0 17 -17 74 -15 103 4 22 14 45 60 45 90 0 10 -13 14 -39 14
-33 0 -40 -4 -43 -22 -4 -32 -32 -29 -36 4 -2 20 4 31 23 44 59 38 68 119 19
165 -28 27 -107 36 -144 17z m81 -68 c24 -14 24 -32 -1 -55 -19 -17 -21 -17
-40 0 -25 22 -25 41 -2 54 21 13 20 13 43 1z" />
  </g>
</svg>
