<svg width="58" height="58" viewBox="0 0 58 58" fill="none" xmlns="http://www.w3.org/2000/svg">
<path d="M36.5 29C37.5313 29 38.375 28.1563 38.375 27.125V25.25C38.375 24.2187 37.5313 23.375 36.5 23.375C35.4687 23.375 34.625 24.2187 34.625 25.25V27.125C34.625 28.1563 35.4687 29 36.5 29ZM10.0812 9.3125C12.275 9.3125 14.15 10.775 14.7313 12.7812C14.0938 13.4187 13.5687 14.15 13.1375 14.9375H10.4188C9.13079 14.9375 7.89559 14.4259 6.98486 13.5151C6.07414 12.6044 5.5625 11.3692 5.5625 10.0812V9.70625C5.5625 9.48125 5.73125 9.3125 5.95625 9.3125H10.0812ZM25.25 38.375C25.25 38.8723 25.0525 39.3492 24.7008 39.7008C24.3492 40.0525 23.8723 40.25 23.375 40.25C22.8777 40.25 22.4008 40.0525 22.0492 39.7008C21.6975 39.3492 21.5 38.8723 21.5 38.375C21.5 37.8777 21.6975 37.4008 22.0492 37.0492C22.4008 36.6975 22.8777 36.5 23.375 36.5C23.8723 36.5 24.3492 36.6975 24.7008 37.0492C25.0525 37.4008 25.25 37.8777 25.25 38.375ZM34.625 40.25C35.1223 40.25 35.5992 40.0525 35.9508 39.7008C36.3025 39.3492 36.5 38.8723 36.5 38.375C36.5 37.8777 36.3025 37.4008 35.9508 37.0492C35.5992 36.6975 35.1223 36.5 34.625 36.5C34.1277 36.5 33.6508 36.6975 33.2992 37.0492C32.9475 37.4008 32.75 37.8777 32.75 38.375C32.75 38.8723 32.9475 39.3492 33.2992 39.7008C33.6508 40.0525 34.1277 40.25 34.625 40.25Z" fill="black"/>
<path d="M23.6544 1.05688L23.6356 1.06625C23.075 1.28938 22.4994 1.5725 21.9294 1.96625C19.5631 3.53188 18.0669 5.80625 17.7969 8.47063C16.9306 7.28068 15.7955 6.31214 14.4841 5.64388C13.1726 4.97561 11.7219 4.62651 10.25 4.625H3.6875C2.94158 4.625 2.22621 4.92132 1.69876 5.44876C1.17132 5.97621 0.875 6.69158 0.875 7.4375V10.25C0.875 12.7364 1.86272 15.121 3.62087 16.8791C4.49142 17.7497 5.52492 18.4402 6.66234 18.9114C7.79977 19.3825 9.01886 19.625 10.25 19.625V34.7694C9.06161 36.6381 8.41273 38.7989 8.375 41.0131C8.33311 44.1936 9.53626 47.2644 11.7276 49.5699C13.9189 51.8754 16.9246 53.2329 20.1031 53.3525C21.2605 54.5403 22.6439 55.4843 24.172 56.1289C25.7 56.7735 27.3416 57.1055 29 57.1055C30.6584 57.1055 32.3 56.7735 33.828 56.1289C35.3561 55.4843 36.7395 54.5403 37.8969 53.3525C41.0754 53.2329 44.0811 51.8754 46.2724 49.5699C48.4637 47.2644 49.6669 44.1936 49.625 41.0131C49.5885 38.7963 48.9395 36.6328 47.75 34.7619V19.625C50.2364 19.625 52.621 18.6373 54.3791 16.8791C56.1373 15.121 57.125 12.7364 57.125 10.25V7.4375C57.125 6.69158 56.8287 5.97621 56.3012 5.44876C55.7738 4.92132 55.0584 4.625 54.3125 4.625H47.75C45.5417 4.62687 43.4055 5.4107 41.72 6.8375C41.1031 4.8875 39.7963 3.19063 37.9438 1.96625C37.4114 1.60297 36.8396 1.30105 36.2394 1.06625L36.2206 1.05688C34.0137 0.203751 32.0281 2.48375 32.9544 4.535L32.96 4.55L32.9675 4.565C33.5637 5.82125 33.6856 7.08313 33.2412 8.375H26.975C26.9199 8.0975 26.8718 7.81866 26.8306 7.53875C26.7377 6.94151 26.6957 6.33747 26.705 5.73313C26.7238 5.14625 26.8138 4.7675 26.9094 4.565L26.9169 4.55L26.9225 4.535C27.8488 2.48375 25.8631 0.203751 23.6562 1.05688H23.6544ZM20.5625 12.125H30.875L33.4625 14.7125C34.4281 15.6768 35.5741 16.4413 36.8353 16.9625C38.0964 17.4837 39.4479 17.7513 40.8125 17.75H43.9381L43.9606 17.9563C43.9869 18.2 44 18.4438 44 18.6875V33.6763C42.0193 32.4463 39.7315 31.8009 37.4 31.8144H27.125V29.225C27.125 24.3875 24.575 19.4938 20.5625 16.8125C18.56 15.4719 14 15.875 14 15.875H10.25C8.75816 15.875 7.32742 15.2824 6.27252 14.2275C5.21763 13.1726 4.625 11.7418 4.625 10.25V8.375H10.25C11.3425 8.37445 12.4116 8.69208 13.3266 9.28909C14.2416 9.8861 14.9629 10.7367 15.4025 11.7369L16.1619 13.4656L17.885 12.6931C18.7287 12.3181 19.64 12.1231 20.5625 12.125ZM20.5625 49.625C19.4438 49.6251 18.3363 49.4028 17.3043 48.9709C16.2724 48.5391 15.3366 47.9063 14.5514 47.1095C13.7663 46.3126 13.1474 45.3676 12.7308 44.3294C12.3143 43.2911 12.1083 42.1804 12.125 41.0619C12.1475 39.3754 12.6817 37.7355 13.6569 36.3594L13.7881 36.1738C15.5244 34.6213 17.9881 33.6425 20.7519 33.6894H37.4019C40.1056 33.6819 42.5113 34.6494 44.2138 36.17L44.3431 36.3538C45.3181 37.7319 45.8544 39.3725 45.875 41.0619C45.8914 42.1804 45.6853 43.2909 45.2686 44.3291C44.852 45.3672 44.2331 46.3121 43.448 47.1089C42.6629 47.9057 41.7272 48.5385 40.6954 48.9704C39.6635 49.4024 38.5561 49.6249 37.4375 49.625H20.5625ZM23.615 51.5H34.37C33.1066 52.4907 31.594 53.113 29.9992 53.2983C28.4044 53.4836 26.7894 53.2246 25.3325 52.55C24.7214 52.2675 24.145 51.9152 23.615 51.5V51.5ZM47.75 15.875H45.29C45.1661 15.5543 45.0234 15.2413 44.8625 14.9375H47.5812C48.8692 14.9375 50.1044 14.4259 51.0151 13.5151C51.9259 12.6044 52.4375 11.3692 52.4375 10.0813V9.70625C52.4375 9.48125 52.2688 9.3125 52.0438 9.3125H47.9188C45.725 9.3125 43.85 10.775 43.2688 12.7813C43.2875 12.8 43.3006 12.8169 43.3138 12.8356C43.0402 12.5612 42.749 12.305 42.4419 12.0688L42.5881 11.7313C43.0292 10.7306 43.7523 9.88025 44.6691 9.28417C45.5859 8.68809 46.6565 8.37214 47.75 8.375H53.375V10.25C53.375 11.7418 52.7824 13.1726 51.7275 14.2275C50.6726 15.2824 49.2418 15.875 47.75 15.875ZM19.625 27.125V25.25C19.625 24.2188 20.4687 23.375 21.5 23.375C22.5313 23.375 23.375 24.2188 23.375 25.25V27.125C23.375 28.1563 22.5313 29 21.5 29C20.4687 29 19.625 28.1563 19.625 27.125Z" fill="black"/>
</svg>
