<svg version="1.0" xmlns="http://www.w3.org/2000/svg" width="128.000000pt" height="128.000000pt" viewBox="0 0 128.000000 128.000000" preserveAspectRatio="xMidYMid meet">

  <g transform="translate(0.000000,128.000000) scale(0.100000,-0.100000)" stroke="none">
    <path d="M126 1243 c-47 -71 -59 -139 -63 -373 -4 -200 -6 -220 -30 -285 -21
-56 -26 -90 -27 -165 -1 -89 1 -100 32 -162 38 -78 97 -135 186 -178 141 -69
365 -96 572 -70 236 30 377 108 446 248 31 62 33 74 32 162 0 77 -5 107 -26
161 -25 63 -26 76 -26 255 0 244 -28 385 -86 433 -55 46 -276 -100 -334 -219
l-22 -46 -70 10 c-44 6 -95 6 -138 0 l-68 -9 -34 59 c-60 101 -181 192 -282
211 -34 7 -38 5 -62 -32z m164 -102 c31 -21 73 -63 95 -95 45 -66 50 -56 -57
-116 -34 -19 -91 -62 -126 -95 l-65 -60 6 155 c3 103 11 173 22 208 15 51 18
53 43 48 15 -4 52 -24 82 -45z m825 -3 c17 -58 38 -298 29 -335 -6 -22 -9 -20
-69 35 -35 31 -90 73 -124 92 -106 60 -101 50 -57 114 21 30 52 66 69 79 38
29 107 66 124 67 7 0 19 -24 28 -52z m-360 -213 c185 -47 356 -198 414 -365
l20 -55 -86 -5 c-67 -4 -88 -9 -97 -22 -8 -13 -8 -23 0 -35 9 -15 28 -19 103
-21 l91 -3 0 -27 c0 -46 -10 -51 -99 -54 -67 -2 -86 -7 -95 -21 -21 -33 4 -51
80 -57 l69 -5 -39 -38 c-92 -91 -236 -131 -471 -131 -235 -1 -389 41 -480 130
l-40 39 69 5 c76 6 101 24 80 58 -9 13 -28 18 -95 20 -89 3 -99 8 -99 54 l0
27 91 3 c75 2 94 6 103 21 8 12 8 22 0 35 -9 14 -28 18 -98 20 -85 3 -87 3
-80 25 27 92 106 212 181 275 144 120 321 167 478 127z" />
    <path d="M401 654 c-27 -35 -26 -59 4 -89 30 -31 65 -32 93 -2 28 30 28 68 -1
95 -32 30 -71 28 -96 -4z" />
    <path d="M782 657 c-28 -30 -28 -68 1 -95 30 -29 62 -28 92 3 30 30 31 54 4
89 -26 33 -68 34 -97 3z" />
    <path d="M545 435 c-40 -39 -26 -115 30 -167 l27 -25 -27 -22 c-15 -11 -35
-21 -44 -21 -28 0 -60 29 -69 62 -10 39 -35 57 -59 42 -45 -28 -14 -123 53
-161 49 -28 93 -29 144 -3 l40 20 40 -20 c51 -26 95 -25 144 3 67 38 98 133
54 161 -25 15 -50 -3 -60 -42 -9 -33 -41 -62 -69 -62 -9 0 -29 10 -44 21 l-27
22 27 25 c56 52 70 128 30 167 -21 22 -33 25 -95 25 -62 0 -74 -3 -95 -25z
m135 -64 c0 -5 -9 -19 -20 -32 l-20 -24 -20 24 c-29 34 -25 41 20 41 22 0 40
-4 40 -9z" />
  </g>
</svg>
