<svg width="60" height="60" viewBox="0 0 60 60" fill="none" xmlns="http://www.w3.org/2000/svg">
<g clip-path="url(#clip0_6_2)">
<path d="M21.6169 35.3625C21.6169 36.1669 22.2525 36.8288 23.0231 36.8288C23.7919 36.8288 24.4294 36.1875 24.4294 35.3625V32.6719C24.4294 31.8675 23.7919 31.2038 23.0231 31.2038C22.2525 31.2038 21.6169 31.8675 21.6169 32.6719V35.3625ZM36.8869 36.8288C36.1163 36.8288 35.4806 36.1669 35.4806 35.3625V32.6719C35.4806 31.8675 36.1163 31.2038 36.8869 31.2038C37.6556 31.2038 38.2931 31.8675 38.2931 32.6719V35.3625C38.2931 36.1875 37.6556 36.8288 36.8869 36.8288ZM27.3375 41.325L29.1 42.7687C29.5688 43.1625 30.2625 43.1625 30.75 42.7687L32.5125 41.325C32.6525 41.2079 32.7652 41.0616 32.843 40.8965C32.9207 40.7314 32.9615 40.5513 32.9625 40.3688C32.9625 39.6938 32.4 39.1313 31.725 39.1313H28.125C27.45 39.1313 26.8875 39.6938 26.8875 40.3688C26.8875 40.7438 27.0563 41.0813 27.3375 41.325Z" fill="black"/>
<path d="M24.3375 44.1C24.3375 43.8514 24.2387 43.6129 24.0629 43.4371C23.8871 43.2613 23.6486 43.1625 23.4 43.1625C23.1513 43.1625 22.9129 43.2613 22.7371 43.4371C22.5613 43.6129 22.4625 43.8514 22.4625 44.1C22.4625 46.3669 24.2625 48.2175 26.5106 48.2981V49.8131C26.5126 50.084 26.6211 50.3433 26.8126 50.5349C27.0042 50.7264 27.2634 50.8349 27.5344 50.8369H32.4656C32.7365 50.8349 32.9958 50.7264 33.1873 50.5349C33.3789 50.3433 33.4874 50.084 33.4894 49.8131V48.2906C34.5515 48.218 35.5466 47.745 36.2736 46.9672C37.0006 46.1894 37.4054 45.1647 37.4062 44.1C37.4062 43.8514 37.3075 43.6129 37.1316 43.4371C36.9558 43.2613 36.7174 43.1625 36.4687 43.1625C36.2201 43.1625 35.9816 43.2613 35.8058 43.4371C35.63 43.6129 35.5312 43.8514 35.5312 44.1C35.5071 44.7005 35.2516 45.2683 34.8182 45.6846C34.3848 46.101 33.8072 46.3335 33.2062 46.3335C32.6053 46.3335 32.0276 46.101 31.5942 45.6846C31.1609 45.2683 30.9053 44.7005 30.8812 44.1C30.8812 43.8514 30.7825 43.6129 30.6066 43.4371C30.4308 43.2613 30.1924 43.1625 29.9437 43.1625H29.925C29.6763 43.1625 29.4379 43.2613 29.2621 43.4371C29.0863 43.6129 28.9875 43.8514 28.9875 44.1C28.9634 44.7005 28.7079 45.2683 28.2745 45.6846C27.8411 46.101 27.2634 46.3335 26.6625 46.3335C26.0615 46.3335 25.4839 46.101 25.0505 45.6846C24.6171 45.2683 24.3616 44.7005 24.3375 44.1V44.1ZM20.9625 18.6844C21.0562 19.1756 21.4706 19.5281 21.9787 19.5281C22.2533 19.5286 22.517 19.4208 22.7125 19.2281C22.908 19.0354 23.0196 18.7733 23.0231 18.4988V9.405C23.0231 8.37563 22.1606 7.5 21.1331 7.5C20.8613 7.4994 20.5926 7.55815 20.3458 7.67214C20.099 7.78614 19.8801 7.95264 19.7044 8.16C19.5291 8.37129 19.4024 8.61856 19.3334 8.88427C19.2644 9.14998 19.2547 9.42762 19.305 9.6975L20.9644 18.6844H20.9625ZM36.8869 18.4819V9.3825C36.8869 8.35125 37.7325 7.47375 38.7806 7.47375C39.054 7.47545 39.3237 7.53692 39.5708 7.65384C39.818 7.77077 40.0365 7.94032 40.2112 8.15063C40.3904 8.3604 40.5196 8.60812 40.5891 8.8751C40.6586 9.14208 40.6666 9.42136 40.6125 9.69188L38.9494 18.6825C38.9048 18.9197 38.779 19.1339 38.5935 19.2883C38.408 19.4426 38.1744 19.5275 37.9331 19.5281C37.6558 19.5276 37.3899 19.4172 37.1938 19.2211C36.9977 19.025 36.8874 18.7592 36.8869 18.4819V18.4819Z" fill="black"/>
<path d="M54.3 46.5919L54.9375 46.7625C55.4437 46.8938 55.725 47.4 55.5937 47.9062C55.4625 48.4125 54.9562 48.6937 54.45 48.5625L53.6137 48.3375C51.9531 51.9654 49.1015 54.9162 45.5325 56.7C45.159 56.9005 44.7781 57.0869 44.3906 57.2587C43.6462 57.5869 42.5906 58.0012 41.2275 58.4081C38.4994 59.2237 34.5581 60 29.4562 60C24.3637 60 20.4225 59.2238 17.6925 58.41C16.6143 58.0932 15.5572 57.7087 14.5275 57.2587C14.1394 57.0868 13.7579 56.9004 13.3837 56.7H13.38C9.88495 54.9465 7.0757 52.0759 5.39812 48.5437C5.17974 48.6064 4.94593 48.5863 4.74147 48.4872C4.53702 48.3882 4.3763 48.2172 4.29013 48.0069C4.20396 47.7967 4.19838 47.5621 4.27447 47.3481C4.35057 47.134 4.50297 46.9555 4.70249 46.8469C4.05737 44.999 3.72901 43.0554 3.73124 41.0981V40.98C3.73687 40.7738 3.74437 40.5694 3.75374 40.3631C3.74557 40.2678 3.75125 40.1718 3.77062 40.0781C3.8145 39.3607 3.89964 38.6464 4.02562 37.9387C4.57874 34.2825 6.27937 27.6637 11.58 22.2112L11.5987 22.1925C12.4312 21.3488 13.2937 20.5931 14.1694 19.9219L12.42 10.4381V10.4344C11.4075 5.0025 15.5925 -6.87304e-07 21.1125 -6.87304e-07C23.3839 -0.00191181 25.5685 0.872148 27.2117 2.44027C28.8549 4.00839 29.8301 6.14977 29.9344 8.41875C30.0386 6.14977 31.0138 4.00839 32.657 2.44027C34.3002 0.872148 36.4849 -0.00191181 38.7562 -6.87304e-07C44.2725 -6.87304e-07 48.4294 5.01375 47.4525 10.4175L47.4506 10.4306L45.585 20.535C46.2 21.0469 46.8037 21.6038 47.3906 22.2131C52.7119 27.6694 54.39 34.3069 54.9431 37.9312C55.0275 38.3944 55.0931 38.865 55.1381 39.3375H55.1812C55.7062 39.3375 56.1187 39.75 56.1187 40.275C56.1187 40.7887 55.725 41.1937 55.215 41.2125C55.2084 41.3607 55.1941 41.5084 55.1719 41.655C55.1211 43.3341 54.8274 44.997 54.3 46.5919V46.5919ZM41.475 22.1438L43.7625 9.75C44.325 6.6375 41.925 3.75 38.7562 3.75C35.9437 3.75 33.675 6.01875 33.675 8.83125V18.9562C32.4459 18.7081 31.1973 18.5688 29.9437 18.54H29.925C29.7812 18.5376 29.6374 18.5388 29.4937 18.5438C29.4937 18.5438 28.1812 18.4688 26.1937 18.7875V8.83125C26.1937 6.01875 23.925 3.75 21.1125 3.75C17.925 3.75 15.525 6.6375 16.1062 9.75L18.3 21.6375C16.9312 22.4625 15.5625 23.5125 14.2687 24.825C9.71249 29.5125 8.21249 35.2875 7.72499 38.55C7.67812 38.8125 7.63687 39.075 7.60499 39.3375H17.775C18.2812 39.3375 18.7125 39.7687 18.7125 40.275C18.7125 40.8 18.3 41.2125 17.775 41.2125H7.48124C7.49437 42.8437 7.79437 44.4037 8.32874 45.8494L17.5687 43.3687C18.0562 43.2187 18.5812 43.5187 18.6937 44.0062C18.825 44.5125 18.5437 45.0187 18.0375 45.15L9.09749 47.55C10.454 50.0735 12.563 52.1116 15.1312 53.3812C15.1312 53.3812 20.0437 56.25 29.4562 56.25C38.8875 56.25 43.7812 53.3812 43.7812 53.3812C46.4243 52.0816 48.5792 49.9661 49.9275 47.3475L41.8125 45.1688C41.6936 45.1379 41.5821 45.0837 41.4844 45.0092C41.3868 44.9347 41.305 44.8414 41.2439 44.7349C41.1827 44.6283 41.1435 44.5107 41.1284 44.3888C41.1134 44.2669 41.1229 44.1432 41.1562 44.025C41.2875 43.5187 41.7937 43.2187 42.3 43.3687L50.67 45.6169C51.1519 44.2369 51.42 42.7556 51.4312 41.2125H42.0937C41.5687 41.2125 41.1562 40.8 41.1562 40.275C41.1562 39.7687 41.5687 39.3375 42.0937 39.3375H51.3656C51.3331 39.0738 51.2924 38.8112 51.2437 38.55C51.1842 38.1554 51.116 37.7622 51.0394 37.3706L51.0356 37.35C50.3794 34.0031 48.7556 28.98 44.7 24.825C43.6687 23.7562 42.5812 22.875 41.475 22.1438V22.1438Z" fill="black"/>
</g>
<defs>
<clipPath id="clip0_6_2">
<rect width="60" height="60" fill="white"/>
</clipPath>
</defs>
</svg>
