<?xml version="1.0" standalone="no"?>
<!DOCTYPE svg PUBLIC "-//W3C//DTD SVG 20010904//EN" "http://www.w3.org/TR/2001/REC-SVG-20010904/DTD/svg10.dtd">
<svg version="1.0" xmlns="http://www.w3.org/2000/svg" width="512.000000pt" height="512.000000pt" viewBox="0 0 512.000000 512.000000" preserveAspectRatio="xMidYMid meet">

  <g transform="translate(0.000000,512.000000) scale(0.100000,-0.100000)" stroke="none">
    <path d="M2479 5106 c-20 -7 -49 -22 -65 -33 -582 -405 -2308 -1624 -2332
-1647 -167 -156 -56 -437 172 -436 69 0 116 19 193 74 28 20 53 36 57 36 3 0
6 -645 6 -1433 0 -1595 -4 -1499 67 -1578 20 -22 55 -50 77 -62 l41 -22 1865
0 1865 0 41 22 c22 12 57 40 77 62 71 79 67 -17 67 1578 0 788 3 1433 6 1433
4 0 29 -16 57 -36 77 -55 124 -74 193 -74 232 -1 341 285 167 441 -21 19 -221
162 -445 319 l-407 285 -3 450 c-3 500 -2 488 -73 560 -67 67 -84 70 -350 70
-267 0 -282 -3 -351 -72 -62 -61 -68 -83 -74 -251 l-5 -152 -328 229 c-181
128 -344 235 -365 241 -49 13 -109 12 -153 -4z m1266 -970 c633 -444 1162
-821 1178 -837 35 -38 36 -81 1 -115 -53 -54 -16 -77 -1094 682 -547 385
-1051 740 -1119 787 -83 58 -132 87 -151 87 -20 0 -319 -205 -1150 -790 -1226
-862 -1161 -822 -1214 -759 -32 38 -33 70 -4 103 13 14 545 392 1183 841 1001
704 1164 816 1190 813 20 -3 396 -261 1180 -812z m236 785 l29 -29 0 -367 c0
-301 -2 -365 -13 -358 -7 4 -122 85 -255 178 l-242 170 0 190 c1 134 4 195 13
206 27 35 51 38 245 39 l194 0 29 -29z m-480 -1032 l939 -661 -2 -1505 -3
-1505 -28 -24 -28 -24 -1819 0 -1819 0 -28 24 -28 24 -3 1505 -2 1505 937 660
c516 364 940 661 941 661 2 1 427 -296 943 -660z" />
    <path d="M1615 3485 c-263 -47 -511 -257 -640 -539 -185 -406 -155 -918 81
-1396 267 -540 762 -953 1416 -1182 l88 -31 83 28 c45 15 134 50 197 77 820
350 1346 1016 1420 1798 29 301 -43 616 -195 852 -59 91 -210 242 -292 292
-151 91 -326 128 -512 107 -237 -25 -439 -109 -622 -257 l-79 -64 -79 64
c-252 203 -590 302 -866 251z m373 -190 c172 -44 322 -130 470 -269 94 -89
110 -89 204 0 194 183 407 280 653 299 466 35 825 -458 775 -1065 -41 -508
-317 -992 -760 -1337 -198 -154 -508 -321 -720 -388 l-55 -17 -100 37 c-260
96 -554 270 -763 450 -556 478 -801 1224 -592 1797 97 266 299 461 530 513 87
20 233 11 358 -20z" />
    <path d="M2047 2979 c-227 -53 -329 -368 -201 -621 35 -69 117 -154 179 -185
116 -59 241 -38 336 56 95 95 136 248 106 396 -38 183 -144 314 -284 350 -63
17 -81 17 -136 4z m94 -169 c106 -30 184 -196 159 -336 -14 -74 -39 -117 -82
-144 -59 -36 -113 -22 -175 42 -117 121 -104 379 21 434 38 16 33 16 77 4z" />
    <path d="M2949 2977 c-135 -38 -237 -149 -284 -311 -13 -43 -16 -85 -13 -160
3 -87 8 -110 34 -166 42 -89 84 -134 159 -171 57 -28 72 -31 132 -27 45 2 85
12 117 27 103 51 198 180 226 312 18 80 8 220 -19 291 -58 149 -217 242 -352
205z m104 -171 c70 -30 107 -105 107 -215 -2 -249 -227 -381 -317 -185 -23 50
-25 66 -21 142 5 104 34 170 99 225 36 31 51 38 92 46 4 0 22 -5 40 -13z" />
    <path d="M1594 2210 c-91 -13 -176 -90 -209 -191 -25 -75 -17 -197 17 -271 58
-125 168 -202 287 -202 80 1 125 19 184 73 135 125 126 377 -18 510 -71 66
-164 94 -261 81z m106 -182 c54 -27 87 -74 96 -134 9 -60 -2 -108 -32 -143
-42 -50 -107 -49 -163 2 -79 73 -80 240 -2 282 36 20 50 18 101 -7z" />
    <path d="M3435 2209 c-70 -9 -117 -31 -170 -80 -144 -133 -153 -385 -18 -510
59 -54 104 -72 184 -73 169 -1 309 149 317 341 10 211 -122 347 -313 322z m86
-176 c82 -49 77 -212 -9 -285 -136 -115 -260 86 -146 238 24 32 76 63 107 64
11 0 32 -8 48 -17z" />
    <path d="M2443 2116 c-121 -39 -216 -134 -327 -327 -43 -74 -96 -158 -119
-188 -87 -117 -125 -235 -114 -359 11 -129 61 -213 158 -267 51 -28 61 -30
159 -29 96 0 114 4 204 37 131 49 181 49 312 0 90 -33 108 -37 204 -37 98 -1
108 1 159 29 102 56 148 136 158 276 10 129 -23 222 -128 371 -30 42 -83 127
-119 189 -82 144 -168 237 -258 281 -56 28 -77 33 -156 35 -57 2 -107 -2 -133
-11z m212 -175 c60 -27 131 -113 214 -256 40 -71 90 -152 111 -180 71 -96 85
-132 85 -220 0 -95 -17 -134 -69 -159 -53 -25 -107 -19 -236 24 -100 34 -132
40 -200 40 -68 0 -100 -6 -200 -40 -184 -62 -259 -50 -296 45 -34 91 -9 195
76 310 21 28 71 109 111 180 83 143 154 229 214 256 52 24 138 24 190 0z" />
  </g>
</svg>
