<svg width="60" height="60" viewBox="0 0 60 60" fill="none" xmlns="http://www.w3.org/2000/svg">
<path d="M38.9062 17.8125C38.9062 18.276 38.7688 18.7292 38.5112 19.1146C38.2537 19.5 37.8877 19.8004 37.4594 19.9778C37.0311 20.1552 36.5599 20.2016 36.1052 20.1112C35.6506 20.0208 35.233 19.7976 34.9052 19.4698C34.5774 19.142 34.3542 18.7244 34.2638 18.2697C34.1733 17.8151 34.2198 17.3438 34.3971 16.9156C34.5745 16.4873 34.8749 16.1213 35.2604 15.8637C35.6458 15.6062 36.0989 15.4687 36.5625 15.4687C37.1841 15.4687 37.7802 15.7157 38.2198 16.1552C38.6593 16.5948 38.9062 17.1909 38.9062 17.8125ZM47.8359 37.1016C43.1016 43.125 35.4375 46.3828 25.0312 46.8047L20.0391 58.6641C19.9385 58.923 19.7611 59.1449 19.5306 59.3C19.3001 59.455 19.0277 59.5357 18.75 59.5313H18.6562C18.3652 59.5091 18.088 59.3984 17.8618 59.214C17.6355 59.0297 17.4711 58.7805 17.3906 58.5L13.8516 46.1484L1.47655 42.5859C1.1987 42.5044 0.952791 42.3391 0.772412 42.1126C0.592034 41.886 0.485981 41.6094 0.468739 41.3203C0.454914 41.0289 0.530589 40.7402 0.685603 40.493C0.840617 40.2458 1.06755 40.052 1.33593 39.9375L13.1953 34.9453C13.6172 24.5625 16.875 16.8984 22.8984 12.1641C32.3906 4.6875 45.8672 6.86719 49.7578 7.73437C50.3759 7.85988 50.9434 8.16464 51.3894 8.61063C51.8353 9.05662 52.1401 9.62408 52.2656 10.2422C53.1328 14.1328 55.3125 27.6094 47.8359 37.1016ZM39.75 40.3125C37.3035 39.6359 35.1171 38.2394 33.4745 36.3043C31.8319 34.3691 30.8092 31.9848 30.5391 29.4609C28.0102 29.1874 25.6217 28.161 23.6828 26.5146C21.7439 24.8682 20.3439 22.6776 19.6641 20.2266C17.3672 24.3281 16.125 29.5781 15.9844 35.9297C15.9779 36.202 15.8925 36.4665 15.7386 36.6912C15.5846 36.9158 15.3688 37.091 15.1172 37.1953L6.09374 40.9922L15.3984 43.6406C15.6255 43.7162 15.8312 43.8449 15.9984 44.0162C16.1656 44.1874 16.2893 44.3962 16.3594 44.625L19.0078 53.9063L22.8047 44.8828C22.909 44.6312 23.0841 44.4154 23.3088 44.2614C23.5335 44.1075 23.798 44.0221 24.0703 44.0156C30.4219 43.875 35.6719 42.6328 39.75 40.3125V40.3125ZM49.5234 10.8281C49.5134 10.7383 49.4731 10.6547 49.4092 10.5908C49.3453 10.5269 49.2616 10.4866 49.1719 10.4766C45.5625 9.70312 33.164 7.66406 24.6562 14.3672C23.6976 15.1109 22.8179 15.9513 22.0312 16.875C22.0312 19.4857 23.0683 21.9895 24.9144 23.8356C26.7605 25.6816 29.2643 26.7187 31.875 26.7187C32.2479 26.7187 32.6056 26.8669 32.8694 27.1306C33.1331 27.3944 33.2812 27.752 33.2812 28.125C33.2812 30.7357 34.3183 33.2395 36.1644 35.0856C38.0105 36.9316 40.5143 37.9688 43.125 37.9688C44.0429 37.1759 44.8826 36.2969 45.6328 35.3437C52.3359 26.8359 50.2969 14.4375 49.5234 10.8281V10.8281Z" fill="black"/>
</svg>
